<?xml version="1.0" encoding="UTF-8"?><svg xmlns="http://www.w3.org/2000/svg" viewBox="0 0 198.68 198.68"><defs><style>.d{fill:none;stroke:#fad042;stroke-miterlimit:10;stroke-width:2px;}</style></defs><g id="a"/><g id="b"><g id="c"><g><line class="d" x1="99.34" x2="99.34" y2="198.68"/><line class="d" x1="93.1" y1=".2" x2="105.58" y2="198.48"/><line class="d" x1="86.89" y1=".78" x2="111.79" y2="197.9"/><line class="d" x1="80.73" y1="1.76" x2="117.95" y2="196.92"/><line class="d" x1="74.63" y1="3.12" x2="124.04" y2="195.56"/><line class="d" x1="68.64" y1="4.86" x2="130.04" y2="193.82"/><line class="d" x1="62.77" y1="6.98" x2="135.91" y2="191.7"/><line class="d" x1="57.04" y1="9.45" x2="141.64" y2="189.22"/><line class="d" x1="51.48" y1="12.29" x2="147.2" y2="186.39"/><line class="d" x1="46.11" y1="15.46" x2="152.57" y2="183.22"/><line class="d" x1="40.95" y1="18.97" x2="157.73" y2="179.71"/><line class="d" x1="36.02" y1="22.8" x2="162.66" y2="175.88"/><line class="d" x1="31.34" y1="26.92" x2="167.34" y2="171.76"/><line class="d" x1="26.92" y1="31.34" x2="171.76" y2="167.34"/><line class="d" x1="22.8" y1="36.02" x2="175.88" y2="162.66"/><line class="d" x1="18.97" y1="40.95" x2="179.71" y2="157.73"/><line class="d" x1="15.46" y1="46.11" x2="183.22" y2="152.57"/><line class="d" x1="12.29" y1="51.48" x2="186.39" y2="147.2"/><line class="d" x1="9.45" y1="57.04" x2="189.22" y2="141.64"/><line class="d" x1="6.98" y1="62.77" x2="191.7" y2="135.91"/><line class="d" x1="4.86" y1="68.64" x2="193.82" y2="130.04"/><line class="d" x1="3.12" y1="74.63" x2="195.56" y2="124.04"/><line class="d" x1="1.76" y1="80.73" x2="196.92" y2="117.95"/><line class="d" x1=".78" y1="86.89" x2="197.9" y2="111.79"/><line class="d" x1=".2" y1="93.1" x2="198.48" y2="105.58"/><line class="d" x1="0" y1="99.34" x2="198.68" y2="99.34"/><line class="d" x1=".2" y1="105.58" x2="198.48" y2="93.1"/><line class="d" x1=".78" y1="111.79" x2="197.9" y2="86.89"/><line class="d" x1="1.76" y1="117.95" x2="196.92" y2="80.73"/><line class="d" x1="3.12" y1="124.04" x2="195.56" y2="74.63"/><line class="d" x1="4.86" y1="130.04" x2="193.82" y2="68.64"/><line class="d" x1="6.98" y1="135.91" x2="191.7" y2="62.77"/><line class="d" x1="9.45" y1="141.64" x2="189.22" y2="57.04"/><line class="d" x1="12.29" y1="147.2" x2="186.39" y2="51.48"/><line class="d" x1="15.46" y1="152.57" x2="183.22" y2="46.11"/><line class="d" x1="18.97" y1="157.73" x2="179.71" y2="40.95"/><line class="d" x1="22.8" y1="162.66" x2="175.88" y2="36.02"/><line class="d" x1="26.92" y1="167.34" x2="171.76" y2="31.34"/><line class="d" x1="31.34" y1="171.76" x2="167.34" y2="26.92"/><line class="d" x1="36.02" y1="175.88" x2="162.66" y2="22.8"/><line class="d" x1="40.95" y1="179.71" x2="157.73" y2="18.97"/><line class="d" x1="46.11" y1="183.22" x2="152.57" y2="15.46"/><line class="d" x1="51.48" y1="186.39" x2="147.2" y2="12.29"/><line class="d" x1="57.04" y1="189.22" x2="141.64" y2="9.45"/><line class="d" x1="62.77" y1="191.7" x2="135.91" y2="6.98"/><line class="d" x1="68.64" y1="193.82" x2="130.04" y2="4.86"/><line class="d" x1="74.63" y1="195.56" x2="124.04" y2="3.12"/><line class="d" x1="80.73" y1="196.92" x2="117.95" y2="1.76"/><line class="d" x1="86.89" y1="197.9" x2="111.79" y2=".78"/><line class="d" x1="93.1" y1="198.48" x2="105.58" y2=".2"/></g></g></g></svg>